<svg width="24" height="24" viewBox="0 0 24 24" fill="none" xmlns="http://www.w3.org/2000/svg">
<path d="M1.75098 6.36991L22.292 2.00391" stroke="#C30000" stroke-width="1.5" stroke-linecap="round" stroke-linejoin="round"/>
<path d="M13.6 0.782444L9.20005 1.71744C9.00683 1.75808 8.82354 1.83647 8.66068 1.94811C8.49783 2.05974 8.35861 2.20243 8.25103 2.36799C8.14344 2.53355 8.0696 2.71872 8.03374 2.91288C7.99788 3.10705 8.0007 3.30638 8.04205 3.49944L8.35405 4.96744L15.69 3.40744L15.378 1.94044C15.3374 1.74764 15.2591 1.56474 15.1478 1.40218C15.0364 1.23963 14.8941 1.10062 14.729 0.993078C14.5638 0.88554 14.3792 0.811588 14.1855 0.775447C13.9918 0.739306 13.7928 0.741683 13.6 0.782444Z" stroke="#C30000" stroke-width="1.5" stroke-linecap="round" stroke-linejoin="round"/>
<path d="M10.751 18V10.5" stroke="#C30000" stroke-width="1.5" stroke-linecap="round" stroke-linejoin="round"/>
<path d="M15.251 18V10.5" stroke="#C30000" stroke-width="1.5" stroke-linecap="round" stroke-linejoin="round"/>
<path d="M18.626 6H21.251L19.866 21.874C19.8348 22.25 19.6631 22.6004 19.3851 22.8554C19.1071 23.1104 18.7432 23.2513 18.366 23.25H7.63098C7.25477 23.2498 6.89237 23.1082 6.61565 22.8533C6.33892 22.5985 6.16808 22.2489 6.13698 21.874L5.09998 9.377" stroke="#C30000" stroke-width="1.5" stroke-linecap="round" stroke-linejoin="round"/>
</svg>
