<svg width="24" height="24" viewBox="0 0 24 24" fill="none" xmlns="http://www.w3.org/2000/svg">
<g clip-path="url(#clip0_10036_19781)">
<path d="M10.6074 20.4028L11.9624 22.5378" stroke="#FCFCFC" stroke-width="1.5" stroke-linecap="round" stroke-linejoin="round"/>
<path d="M18.0996 10.894L23.2496 19.007" stroke="#FCFCFC" stroke-width="1.5" stroke-linecap="round" stroke-linejoin="round"/>
<path d="M22.9789 18.5798L11.6909 22.1118L10.8779 20.8298L18.3709 11.3208L22.9789 18.5798Z" stroke="#FCFCFC" stroke-width="1.5" stroke-linecap="round" stroke-linejoin="round"/>
<path d="M14.1299 21.348L14.8469 22.448C14.9609 22.6361 15.111 22.7997 15.2885 22.9295C15.466 23.0594 15.6675 23.1528 15.8812 23.2045C16.095 23.2561 16.3169 23.265 16.5341 23.2306C16.7513 23.1962 16.9595 23.1192 17.1469 23.004L17.2299 22.951C17.612 22.6757 17.8746 22.2648 17.9638 21.8023C18.053 21.3398 17.9622 20.8607 17.7099 20.463L17.5769 20.27" stroke="#FCFCFC" stroke-width="1.5" stroke-linecap="round" stroke-linejoin="round"/>
<path d="M10.75 15.75H2.25C1.85218 15.75 1.47064 15.592 1.18934 15.3107C0.908035 15.0294 0.75 14.6478 0.75 14.25V2.25C0.75 1.85218 0.908035 1.47064 1.18934 1.18934C1.47064 0.908035 1.85218 0.75 2.25 0.75H20.25C20.6478 0.75 21.0294 0.908035 21.3107 1.18934C21.592 1.47064 21.75 1.85218 21.75 2.25V10" stroke="#FCFCFC" stroke-width="1.5" stroke-linecap="round" stroke-linejoin="round"/>
<path d="M21.4109 1.2998L13.2669 7.5638C12.6887 8.00882 11.9795 8.25012 11.2499 8.25012C10.5202 8.25012 9.81108 8.00882 9.23287 7.5638L1.08887 1.2998" stroke="#FCFCFC" stroke-width="1.5" stroke-linecap="round" stroke-linejoin="round"/>
</g>
<defs>
<clipPath id="clip0_10036_19781">
<rect width="24" height="24" fill="white"/>
</clipPath>
</defs>
</svg>
